<svg xmlns="http://www.w3.org/2000/svg" height="20" viewBox="0 -960 960 960" width="20"><path d="M424-267h112v-261H424v261Zm55.614-319q25.886 0 43.136-16.864Q540-619.728 540-645.614t-16.864-43.136Q506.272-706 480.386-706t-43.136 16.864Q420-672.272 420-646.386t16.864 43.136Q453.728-586 479.614-586Zm.662 536q-88.916 0-167.743-33.104-78.828-33.103-137.577-91.852-58.749-58.749-91.852-137.535Q50-391.277 50-480.458q0-89.438 33.162-167.491 33.163-78.053 92.175-136.942 59.011-58.889 137.533-91.999Q391.393-910 480.458-910q89.428 0 167.518 33.093T784.94-784.94q58.874 58.874 91.967 137.215Q910-569.385 910-480.192q0 89.192-33.11 167.518-33.11 78.326-91.999 137.337-58.889 59.012-137.167 92.174Q569.447-50 480.276-50Z"/></svg>