<?xml version="1.0" encoding="utf-8"?>
<!-- Generator: Adobe Illustrator 25.3.1, SVG Export Plug-In . SVG Version: 6.00 Build 0)  -->
<svg version="1.1" id="Layer_1" xmlns="http://www.w3.org/2000/svg" xmlns:xlink="http://www.w3.org/1999/xlink" x="0px" y="0px"
	 viewBox="0 0 331 144" style="enable-background:new 0 0 331 144;" xml:space="preserve">
<style type="text/css">
	.st0{fill:#FFFFFF;}
</style>
<g id="tx">
</g>
<g id="logo">
	<path class="st0" d="M61.3,49.7L21.9,89.4l0.5-89l-22,13v128.8h22l-0.5-25.3l41.4-42.2l24.9-25.3L61.3,49.7L61.3,49.7z"/>
	<path class="st0" d="M225.4,66.9c-5,0-15.6,1.9-22,10.2v65.4h-22V49.7h21.6v10.7c3.3-4.3,14.4-13,29.1-13c7.1,0,13.5,1.7,18.2,4.3
		c4.7,2.6,9.2,7.1,11.8,12.3c3.3-4.7,14-16.1,32.9-16.1c5.9,0,10.9,1.2,15.2,2.6c4.3,1.7,8.1,4.3,11.4,7.6c3.3,3.3,5.4,7.1,7.1,11.8
		s2.1,9.7,2.1,15.2V142h-22V87.3c0-5.9-1.2-20.6-19.9-20.6c-5.7,0-15.4,1.9-21.3,10.2c0,1.2,0,64.7,0,64.7h-22.3V87.1
		C245.3,81.4,243.6,66.9,225.4,66.9z"/>
	<path class="st0" d="M96.8,114.8c0.2,0.2,10.7,7.3,22,10.7c10.4,3.1,17.5,1.4,22.3-1.7c4.7-3.1,4.7-9.5,0.5-12.8
		c-2.1-1.7-4.5-2.6-6.9-3.6c-5.9-2.1-11.8-4-17.8-6.4c-9-3.6-20.4-9.2-20.1-25.8c0.7-12.6,8.3-27,32-27.7
		c17.3-0.5,30.1,7.6,30.1,7.6v20.6c0,0-5.4-5.7-15.6-9c-15.2-4.3-24.9-0.7-26.3,5.2c-1.7,7.3,5.7,9.9,6.9,10.4
		c5.9,2.1,24.2,9,27.5,10.4c5.9,2.8,10.7,7.6,13,14c4.3,11.8-0.5,23.4-10.2,30.3c-17.5,11.8-43.1,5.4-55.9-1.4
		c-0.2-0.2-1.4-0.7-1.4-0.7S96.8,115.2,96.8,114.8z"/>
	<path class="st0" d="M93,142.2H64.3l-21.6-25.3l14.4-14.7L93,142.2z"/>
</g>
</svg>
